<?xml version="1.0" encoding="UTF-8" standalone="no"?>
<svg width="50px" height="50px" viewBox="0 0 1230 1230" version="1.1" xmlns="http://www.w3.org/2000/svg" xmlns:xlink="http://www.w3.org/1999/xlink">
    <g id="Page-1" stroke="none" stroke-width="1" fill="none" fill-rule="evenodd">
        <g id="gears" transform="translate(252.000000, 0.000000)" fill="#4A4A4A">
            <path d="M297.996923,645.601974 L281.436403,645.891039 L252.908899,563.041152 C235.796307,558.05274 219.442468,551.284064 204.061297,542.949046 L128.446212,583.1543 L65.0236133,521.907808 L103.565982,442.884242 C95.2441282,427.684352 88.4556018,411.525348 83.4084546,394.615272 L1.55697279,369.590763 L0.0182327263,281.436403 L82.9689739,252.874173 C87.933078,235.854206 94.658294,219.585035 102.934117,204.277156 L62.6140896,128.446212 L123.860581,65.0236133 L203.006672,103.625741 C218.29079,95.2478635 234.545802,88.4207772 251.55997,83.3562206 L276.568509,1.55697279 L364.722869,0.0182327263 L393.302908,83.0206933 C410.334253,88.0018643 426.612607,94.7468514 441.926856,103.044534 L516.892619,63.1845309 L580.315218,124.431023 L542.171429,202.63738 C550.601736,217.955722 557.472809,234.252995 562.570845,251.31541 L644.352299,276.318509 L645.891039,364.472869 L563.070525,392.990259 C558.091708,410.096894 551.334066,426.445988 543.011186,441.823961 L583.1543,517.322177 L521.907808,580.744776 L443.107828,542.311458 C427.833706,550.694254 411.588848,557.527822 394.584749,562.600653 L369.590763,644.352299 L352.775306,644.645814 L365.02625,531.344832 C462.2574,511.839315 535.5,425.97302 535.5,323 C535.5,205.639491 440.360509,110.5 323,110.5 C205.639491,110.5 110.5,205.639491 110.5,323 C110.5,426.1971 184.061714,512.212942 281.608845,531.471227 L297.996923,645.601974 Z" id="Combined-Shape"></path>
            <path d="M475.003077,579.398026 L491.563597,579.108961 L520.091101,661.958848 C537.203693,666.94726 553.557532,673.715936 568.938703,682.050954 L644.553788,641.8457 L707.976387,703.092192 L669.434018,782.115758 C677.755872,797.315648 684.544398,813.474652 689.591545,830.384728 L771.443027,855.409237 L772.981767,943.563597 L690.031026,972.125827 C685.066922,989.145794 678.341706,1005.41497 670.065883,1020.72284 L710.38591,1096.55379 L649.139419,1159.97639 L569.993328,1121.37426 C554.70921,1129.75214 538.454198,1136.57922 521.44003,1141.64378 L496.431491,1223.44303 L408.277131,1224.98177 L379.697092,1141.97931 C362.665747,1136.99814 346.387393,1130.25315 331.073144,1121.95547 L256.107381,1161.81547 L192.684782,1100.56898 L230.828571,1022.36262 C222.398264,1007.04428 215.527191,990.747005 210.429155,973.68459 L128.647701,948.681491 L127.108961,860.527131 L209.929475,832.009741 C214.908292,814.903106 221.665934,798.554012 229.988814,783.176039 L189.8457,707.677823 L251.092192,644.255224 L329.892172,682.688542 C345.166294,674.305746 361.411152,667.472178 378.415251,662.399347 L403.409237,580.647701 L420.224694,580.354186 L407.97375,693.655168 C310.7426,713.160685 237.5,799.02698 237.5,902 C237.5,1019.36051 332.639491,1114.5 450,1114.5 C567.360509,1114.5 662.5,1019.36051 662.5,902 C662.5,798.8029 588.938286,712.787058 491.391155,693.528773 L475.003077,579.398026 Z" id="Combined-Shape"></path>
        </g>
        <g id="sand" transform="translate(363.000000, 329.000000)" fill="#C0C05E">
            <path d="M188.587652,723.10788 C227.054549,761.652313 280.242312,785.5 339,785.5 C370.523757,785.5 400.444283,778.635755 427.348438,766.320405 C402.215966,756.007222 351.547634,735.534473 318.858631,724.468437 C282.007109,711.993285 222.469449,704.059289 188.587652,723.10788 L188.587652,723.10788 Z" id="Combined-Shape" stroke="#979797"></path>
            <path d="M127.846788,597.057827 C134.702539,583.496288 146.982267,568.899975 168.976513,560.314713 C218.424988,541.012935 338.074296,600.783325 360.889084,649.698921 C378.364093,687.16587 486.361507,665.239796 535.957617,652.923845 C504.375217,730.675368 428.090098,785.5 339,785.5 C229.773602,785.5 139.794743,703.091487 127.846788,597.057827 L127.846788,597.057827 Z" id="Combined-Shape"></path>
            <path d="M347.046225,158.07718 C372.619691,137.004284 393.181529,110.068571 406.675067,79.3267155 C384.455441,58.451693 336.777551,16.7506441 299.549689,5.62541358 C249.292039,-9.39365877 150.592451,33.7985101 107.074644,33.7985105 C67.7514893,33.7985109 29.6449814,-19.1220357 0.00670063137,8.79042236 C4.22706819,70.1773875 34.5189364,124.39574 79.8910241,160.4542 L120.583915,135.912418 L347.046225,158.07718 L347.046225,158.07718 Z" id="Combined-Shape"></path>
            <path d="M272.877324,315.53371 C265.144843,317.788059 257.282248,324.101248 250.127613,321.661036 C247.789135,320.863458 244.680979,319.824642 241.453897,318.618319 L254.02625,202.344832 C300.53584,193.014555 341.556621,168.500296 371.697792,134.192857 C348.657624,109.880543 323.37402,91.9477468 301.560917,78.0056496 C278.980959,63.5734079 161.495628,75.970627 124.456687,80.8042828 C99.450134,84.0676879 71.925322,108.744159 59.2800687,141.759774 C88.7846522,172.248519 127.336797,193.928224 170.608845,202.471227 L187.594551,320.764007 C185.633236,325.181682 183.011526,330.430492 180.023924,334.731233 L218.892172,353.688542 C234.166274,345.305755 250.411142,338.472182 267.415251,333.399347 L272.877324,315.53371 L272.877324,315.53371 Z" id="Combined-Shape"></path>
        </g>
    </g>
</svg>